<svg version="1.1" viewBox="0.0 0.0 96.0 96.0" fill="none" stroke="none" stroke-linecap="square" stroke-miterlimit="10" xmlns:xlink="http://www.w3.org/1999/xlink" xmlns="http://www.w3.org/2000/svg"><clipPath id="g30cac409f0b_0_3.0"><path d="m0 0l96.0 0l0 96.0l-96.0 0l0 -96.0z" clip-rule="nonzero"/></clipPath><g clip-path="url(#g30cac409f0b_0_3.0)"><path fill="#000000" fill-opacity="0.0" d="m0 0l96.0 0l0 96.0l-96.0 0z" fill-rule="evenodd"/><path fill="#000000" fill-opacity="0.0" d="m-9.291437 20.330584l100.850395 0l0 55.55906l-100.850395 0z" fill-rule="evenodd"/><path fill="#595959" d="m0.7911545 76.91011l7.046875 -33.14062l9.34375 0l-7.046875 33.14062l-9.34375 0zm8.171875 -38.749996l1.375 -6.484377l9.40625 0l-1.375 6.484377l-9.40625 0z" fill-rule="nonzero"/><path fill="#bf9000" d="m17.79564 76.91011l13.765625 -64.796875l14.328123 0l-5.625 26.484375l16.500004 -26.484375l14.000004 0l-18.218758 29.28125l5.015629 35.51562l-14.562504 0l-3.265625 -28.640621l-2.0625 2.5625l-5.546875 26.078121l-14.328123 0z" fill-rule="nonzero"/><path fill="#595959" d="m66.1556 76.91011l8.4375 -39.70312l-7.15625 0l1.65625 -7.812502l24.8125 0l-1.65625 7.812502l-7.09375 0l-8.4375 39.70312l-10.5625 0z" fill-rule="nonzero"/></g></svg>